<svg xmlns="http://www.w3.org/2000/svg" viewBox="0 0 408.63 354.71"><defs><style>.cls-1{fill:#d15150;}.cls-2{fill:#6a2041;}.cls-3{fill:#eb7051;}.cls-4{fill:#fe9e55;}</style></defs><g id="Calque_2" data-name="Calque 2"><g id="logos"><path class="cls-1" d="M340.24,119.29V238.55H320.89V119.29a41.19,41.19,0,1,0-82.38,0,118.78,118.78,0,0,1-23,70.45c-1.52,2.08-3.19,4.21-5,6.31l-.19.23a119.85,119.85,0,0,1-28.18,24.35,119.32,119.32,0,1,1,0-202.67c3.29,2,6.49,4.26,9.58,6.62A129.94,129.94,0,0,0,181,35.85c-.84,1-1.66,2-2.46,3-.41-.3-.82-.6-1.24-.89l-.7-.49-1.38-1c-.51-.35-1-.69-1.54-1l-1.56-1-1.57-1c-1.65-1-3.34-1.94-5.05-2.83q-.71-.37-1.41-.72-2.48-1.24-5-2.35l-1.7-.72A99.95,99.95,0,1,0,182.6,196.55c1.91-1.57,3.82-3.26,5.65-5a99.78,99.78,0,0,0,30.85-68.66l.05-2v-.63c0-.33,0-.66,0-1a60.54,60.54,0,1,1,121.08,0Z"/><path class="cls-1" d="M238.51,169.22v69.33H219.16V201.32l0,0c.38-.46.75-.93,1.12-1.4l.72-.9c.42-.53.82-1.06,1.22-1.59s.89-1.18,1.31-1.76l1.15-1.59c.38-.53.75-1.07,1.12-1.61.75-1.08,1.47-2.16,2.18-3.26s1.39-2.21,2.07-3.33l1-1.68c.33-.56.66-1.13,1-1.7q1.76-3.12,3.33-6.33c.19-.38.37-.76.55-1.13s.39-.83.58-1.24c.28-.59.55-1.19.81-1.78s.46-1,.68-1.55S238.34,169.63,238.51,169.22Z"/><path class="cls-2" d="M214.15,119.29v0Z"/><path class="cls-3" d="M209.15,212.17v26.38H189.8V227.62c2.89-1.89,5.72-3.9,8.45-6,.42-.32.84-.64,1.25-1l1.39-1.12c.61-.5,1.22-1,1.82-1.51s1.35-1.15,2-1.74,1.27-1.13,1.9-1.71l.16-.14c.57-.53,1.14-1.06,1.7-1.6Z"/><path class="cls-4" d="M179.71,233.57l.09,0v5H169.19c.57-.24,1.14-.48,1.71-.74l1.61-.71c1.67-.75,3.33-1.55,5-2.38C178.23,234.35,179,234,179.71,233.57Z"/><path class="cls-3" d="M369.61,119.29V238.55H350.24V119.29a70.54,70.54,0,0,0-141.08,0c0,.25,0,.51,0,.76v.69l-.05,1.85a89.85,89.85,0,0,1-27.76,61.72c-1.65,1.58-3.36,3.1-5.08,4.51A89.88,89.88,0,1,1,153.54,36.16c.78.32,1.55.66,2.32,1,1,.44,2,.9,3,1.39.72.35,1.44.71,2.15,1.09s1.54.82,2.3,1.25l.18.1c.65.36,1.29.74,1.93,1.12l.58.35c.59.36,1.17.72,1.75,1.1.25.15.49.31.73.47.55.35,1.08.71,1.62,1.09.85.57,1.69,1.17,2.52,1.78a128.74,128.74,0,0,0-9.7,17q-2.28-1.8-4.69-3.39a70.55,70.55,0,1,0,31.59,58.81,89.62,89.62,0,0,1,13.9-48,90.93,90.93,0,0,1,13.92-17c1.61-1.54,3.32-3.05,5.08-4.5a89.91,89.91,0,0,1,146.91,69.52Z"/><path class="cls-3" d="M209.15,119.39v.66c0-.25,0-.51,0-.76Z"/><path class="cls-2" d="M214.15,119.29v0Z"/><path class="cls-4" d="M370.79,42.27a119.15,119.15,0,0,0-154-24.34,117.58,117.58,0,0,0-14.09,10.26,119.34,119.34,0,0,0-14.09,14.08c-1.84,2.18-3.57,4.38-5.15,6.54a118.67,118.67,0,0,0-23,70.45,41.23,41.23,0,1,1-7.77-24.05,127.63,127.63,0,0,1,6.13-21.79,59.31,59.31,0,0,0-6.12-4.64,60.56,60.56,0,1,0,27.11,50.48A99.84,99.84,0,0,1,210.71,47c1.78-1.71,3.69-3.39,5.65-5a99.91,99.91,0,0,1,163.25,77.25V238.52H399V119.26A119.3,119.3,0,0,0,370.79,42.27Z"/><path class="cls-1" d="M54.11,277h0a29.09,29.09,0,0,0-15-3.9,29.3,29.3,0,0,0-15,3.9A28.92,28.92,0,0,0,13.58,287.6a29.71,29.71,0,0,0-3.91,15.15,31.46,31.46,0,0,0,3.57,15,28,28,0,0,0,9.81,10.61,26,26,0,0,0,14.1,3.93,26.06,26.06,0,0,0,14.1-3.93,28.16,28.16,0,0,0,3.5-2.61,6.58,6.58,0,0,0,2,4.26,6.91,6.91,0,0,0,11.84-4.92V302.75a29.83,29.83,0,0,0-3.9-15.15A29.07,29.07,0,0,0,54.11,277Zm-15,42.74a15.52,15.52,0,0,1-8.16-2.2,16.08,16.08,0,0,1-5.78-6,17.87,17.87,0,0,1-2.13-8.72,18.1,18.1,0,0,1,2.13-8.82A16.16,16.16,0,0,1,31,287.88a15.54,15.54,0,0,1,8.16-2.2,15.51,15.51,0,0,1,8.19,2.19A15.83,15.83,0,0,1,53,293.92a18.34,18.34,0,0,1,2.09,8.83A18.11,18.11,0,0,1,53,311.48a15.83,15.83,0,0,1-5.68,6A15.48,15.48,0,0,1,39.16,319.72Z"/><path class="cls-1" d="M122,276.86h0a30.09,30.09,0,0,0-15.14-3.79,30.28,30.28,0,0,0-15.24,3.79,27.68,27.68,0,0,0-10.45,10.51,30.71,30.71,0,0,0-3.79,15.38A32.26,32.26,0,0,0,80.92,318a26.17,26.17,0,0,0,24,14.34,23.37,23.37,0,0,0,13.24-3.86,24.74,24.74,0,0,0,4.73-4.13,21.09,21.09,0,0,1-2.19,9.57,14.91,14.91,0,0,1-5.77,6.11,16,16,0,0,1-8,2.08,20.35,20.35,0,0,1-8.58-1.74,16.86,16.86,0,0,1-6.14-4.77,6.9,6.9,0,0,0-4.23-2.69A6.6,6.6,0,0,0,82.79,334a6.19,6.19,0,0,0-2.7,4,6.11,6.11,0,0,0,1.31,5,29.92,29.92,0,0,0,11.2,8.74,34,34,0,0,0,14.08,3,29.28,29.28,0,0,0,15.43-4.07,28.75,28.75,0,0,0,10.43-11,31.7,31.7,0,0,0,3.72-15.26V302.75a30.71,30.71,0,0,0-3.79-15.38A27.68,27.68,0,0,0,122,276.86Zm.83,25.89a18.63,18.63,0,0,1-2,8.89,15.18,15.18,0,0,1-5.61,5.93,17.13,17.13,0,0,1-16.62,0,15.46,15.46,0,0,1-5.67-5.95,18.28,18.28,0,0,1-2.09-8.87,18.52,18.52,0,0,1,2.1-8.93,15.41,15.41,0,0,1,5.66-6,17.13,17.13,0,0,1,16.62,0,15,15,0,0,1,5.61,6A18.92,18.92,0,0,1,122.85,302.75Z"/><path class="cls-1" d="M186.58,275.12h0c-2.3-1.52-5.56-2.25-10-2.25a24.14,24.14,0,0,0-11.91,3,23.71,23.71,0,0,0-3.37,2.28,6.06,6.06,0,0,0-1.56-2.94,6.88,6.88,0,0,0-5-1.77,6.32,6.32,0,0,0-6.81,6.81v44.85a6.7,6.7,0,0,0,1.85,5.05,6.9,6.9,0,0,0,5,1.75,6.7,6.7,0,0,0,5-1.85,6.86,6.86,0,0,0,1.76-4.95v-29.3a8.63,8.63,0,0,1,2.44-6.37,14,14,0,0,1,7.18-3.62,26.53,26.53,0,0,1,10.76.19,7.59,7.59,0,0,0,3.13.12,5.74,5.74,0,0,0,2.82-1.37,5.58,5.58,0,0,0,1.71-3C190,280.25,190.08,277.43,186.58,275.12Z"/><path class="cls-1" d="M204.6,273.47a6.79,6.79,0,0,0-4.9,1.91,6.65,6.65,0,0,0-2,5V325a7,7,0,0,0,11.91,4.91,6.83,6.83,0,0,0,1.9-4.91V280.38a6.6,6.6,0,0,0-6.91-6.91Z"/><path class="cls-1" d="M269.32,276.14h0A27.48,27.48,0,0,0,256.08,273a26.29,26.29,0,0,0-12.8,3.14,24.49,24.49,0,0,0-2.85,1.8,6.38,6.38,0,0,0-1.55-2.51,7.34,7.34,0,0,0-9.89,0,6.69,6.69,0,0,0-2,5v44.75a6.77,6.77,0,0,0,6.91,6.9,6.65,6.65,0,0,0,5-2,6.79,6.79,0,0,0,1.91-4.9v-28.3a9.31,9.31,0,0,1,1.68-5.54,12.58,12.58,0,0,1,4.76-4,15,15,0,0,1,6.82-1.52,16.59,16.59,0,0,1,7.38,1.57,11.44,11.44,0,0,1,4.92,4.66,16.79,16.79,0,0,1,1.86,8.43v24.69a6.91,6.91,0,1,0,13.82,0V300.44a30.51,30.51,0,0,0-3.39-14.91A23.14,23.14,0,0,0,269.32,276.14Z"/><path class="cls-1" d="M337.23,276.86h0a32.31,32.31,0,0,0-30.37,0,27.68,27.68,0,0,0-10.45,10.51,32.82,32.82,0,0,0,0,30.66,27.68,27.68,0,0,0,10.45,10.51,32.52,32.52,0,0,0,30.47,0A27.33,27.33,0,0,0,347.74,318a33,33,0,0,0-.06-30.65A27.68,27.68,0,0,0,337.23,276.86ZM322.1,319.72a15.87,15.87,0,0,1-8.31-2.15,15.39,15.39,0,0,1-5.67-5.95,18.2,18.2,0,0,1-2.09-8.87,18.55,18.55,0,0,1,2.09-8.93,15.43,15.43,0,0,1,5.67-6,17.13,17.13,0,0,1,16.62,0,15.09,15.09,0,0,1,5.6,6,18.87,18.87,0,0,1,2.05,8.94,18.63,18.63,0,0,1-2,8.89,15.14,15.14,0,0,1-5.62,5.93A15.86,15.86,0,0,1,322.1,319.72Z"/><path class="cls-1" d="M408.27,277.87h0a6.08,6.08,0,0,0-3.33-3.53,6.71,6.71,0,0,0-5.09-.38,6.38,6.38,0,0,0-3.79,3.17l-15.69,34.19-15.86-34.19a6.36,6.36,0,0,0-3.66-3.16,6,6,0,0,0-4.81.37,6.57,6.57,0,0,0-3.46,3.52,5.94,5.94,0,0,0,.2,4.79l21.3,44.9c1.82,3.54,4.49,4.28,6.41,4.28s4.61-.75,6.23-4.33L408,282.64A6.1,6.1,0,0,0,408.27,277.87Z"/></g></g></svg>